<svg width="43" height="29" viewBox="0 0 43 29" fill="none" xmlns="http://www.w3.org/2000/svg">
<path fill-rule="evenodd" clip-rule="evenodd" d="M22.6971 2.6541C21.0291 3.61202 19.6482 4.40187 19.6284 4.40931C19.6086 4.41675 21.5165 7.76596 23.8683 11.8521L28.1442 19.2813H32.2532H36.3623L36.2628 19.1046C36.0323 18.6948 25.8209 1.04617 25.7775 0.982402C25.7352 0.920336 25.3873 1.10915 22.6971 2.6541ZM15.6528 9.12272C13.9723 10.0913 12.6024 10.9037 12.6086 10.9281C12.6149 10.9526 13.7045 12.8467 15.03 15.1373L17.4401 19.302L17.4402 20.1646L17.4403 21.0272H18.3133H19.1863V20.1545V19.2818L22.3881 19.2711L25.5899 19.2605L22.1556 13.3158C20.2668 10.0463 18.7184 7.36904 18.7148 7.36646C18.7112 7.36385 17.3333 8.15419 15.6528 9.12272ZM8.46362 15.4156C6.80739 16.3751 5.43824 17.1744 5.42108 17.1918C5.40391 17.2092 5.65454 17.6865 5.97809 18.2524L6.56632 19.2813H10.6567C13.912 19.2813 14.743 19.2707 14.7271 19.2293C14.678 19.1014 11.5394 13.6908 11.509 13.6815C11.4902 13.6758 10.1198 14.4562 8.46362 15.4156ZM14.8214 20.7581V22.235L14.52 22.0701C13.4579 21.4891 12.1829 21.4734 11.0592 22.0274C10.3255 22.3892 9.79589 22.912 9.44037 23.6254C9.14106 24.2261 9.0649 24.5583 9.06877 25.2467C9.07267 25.9419 9.15316 26.2982 9.43522 26.868C10.0544 28.1189 11.3425 28.9251 12.722 28.9251C13.3168 28.9251 13.8984 28.7787 14.4774 28.4833L14.8214 28.3078V28.5336V28.7595H15.6944H16.5674V24.0204V19.2813H15.6944H14.8214V20.7581ZM25.6298 20.7518V22.2224L25.3284 22.0617C24.0451 21.3773 22.4576 21.5037 21.3038 22.3822C20.6254 22.8987 20.129 23.683 19.952 24.5182C19.8835 24.8413 19.8757 25.5288 19.9367 25.873C20.2838 27.8323 22.0897 29.1511 24.0647 28.8875C24.4823 28.8317 25.1365 28.6123 25.4313 28.429L25.6298 28.3056V28.5325V28.7595H26.5028H27.3758V24.0204V19.2813H26.5028H25.6298V20.7518ZM4.11047 21.6504C2.70807 21.8484 1.53556 22.8235 1.11087 24.1451C0.56745 25.836 1.35244 27.7122 2.93854 28.5134C4.01693 29.0581 5.2163 29.0591 6.3097 28.5161L6.71502 28.3148V28.5371V28.7595H7.56722H8.41943V25.2259V21.6924H7.56722H6.71502V21.9592V22.226L6.32034 22.0251C6.0833 21.9044 5.77958 21.7898 5.5598 21.7382C5.13478 21.6385 4.47708 21.5986 4.11047 21.6504ZM31.1053 21.6518C30.1965 21.7954 29.291 22.3109 28.7514 22.9918C28.4726 23.3437 28.2358 23.7993 28.0982 24.249C27.9951 24.5855 27.9837 24.6838 27.9851 25.2259C27.9868 25.9234 28.0617 26.2752 28.3259 26.8264C28.8049 27.8259 29.6732 28.5335 30.7846 28.8303C31.1674 28.9325 32.1122 28.9304 32.503 28.8263C32.8624 28.7307 33.2113 28.5893 33.4827 28.4293L33.6946 28.3043V28.5319V28.7595H34.5676H35.4406V25.2259V21.6924H34.5676H33.6946V21.9677C33.6946 22.1828 33.6833 22.2337 33.6427 22.2005C33.4962 22.0808 32.8836 21.8157 32.576 21.7388C32.1745 21.6385 31.4577 21.5961 31.1053 21.6518ZM38.7871 21.6365C37.5221 21.7867 36.6674 22.375 36.3897 23.2865C36.3181 23.5218 36.3064 23.6459 36.3222 24.0025C36.3398 24.3976 36.3545 24.4604 36.4974 24.7494C36.8765 25.5164 37.4272 25.7905 39.1654 26.0775C40.017 26.2181 40.3044 26.3108 40.4688 26.498C40.7306 26.7962 40.5718 27.2342 40.1173 27.4678C39.9296 27.5643 39.8632 27.5747 39.4314 27.5747C39.0575 27.5747 38.905 27.5568 38.7314 27.4924C38.3271 27.3425 38.0548 27.0292 37.993 26.6432L37.9658 26.473H37.0565H36.1473V26.6098C36.1473 26.8311 36.2635 27.2138 36.4228 27.5169C36.9242 28.471 38.1359 28.9921 39.6633 28.9104C41.3743 28.819 42.3771 28.0481 42.493 26.7353C42.5904 25.6334 41.8637 24.8304 40.5053 24.5391C40.2462 24.4835 39.7723 24.3917 39.4522 24.335C38.7255 24.2063 38.4721 24.1252 38.2858 23.9619C38.1008 23.7998 38.0601 23.5998 38.1664 23.3758C38.2238 23.2548 38.2935 23.1943 38.4723 23.1105C38.6862 23.0102 38.7469 23.0019 39.2651 23.0019C39.8021 23.0019 39.8347 23.0068 40.0202 23.1158C40.2517 23.2519 40.3843 23.4507 40.4227 23.7191L40.4509 23.9164L41.3338 23.9277C42.3423 23.9405 42.26 23.9809 42.1527 23.5254C42.0243 22.9808 41.5885 22.3875 41.0979 22.0895C40.5231 21.7404 39.5383 21.5473 38.7871 21.6365ZM17.4403 25.2259V28.7595H18.3133H19.1863V25.2259V21.6924H18.3133H17.4403V25.2259ZM5.17971 23.2975C5.98025 23.535 6.55476 24.1823 6.68001 24.9879C6.77613 25.6061 6.56025 26.2077 6.07511 26.6735C5.12862 27.5824 3.64603 27.4052 2.92952 26.2976C2.7099 25.9581 2.62684 25.6152 2.64783 25.1348C2.66288 24.7916 2.68308 24.7067 2.81682 24.4251C3.24753 23.5181 4.27338 23.0286 5.17971 23.2975ZM13.2861 23.2968C13.6602 23.4067 13.9765 23.6005 14.2378 23.8798C15.0185 24.7143 14.9947 25.8926 14.1815 26.6735C13.3905 27.433 12.1989 27.4529 11.3968 26.7199C11.0129 26.369 10.8133 25.9888 10.7474 25.4825C10.6231 24.529 11.2931 23.5532 12.2483 23.2963C12.5491 23.2154 13.0097 23.2156 13.2861 23.2968ZM24.3459 23.3726C25.1181 23.686 25.6298 24.4413 25.6298 25.2675C25.6298 26.2406 24.9215 27.0591 23.9325 27.2287C23.2846 27.3398 22.6577 27.132 22.183 26.6488C21.7383 26.196 21.5764 25.7713 21.6044 25.1308C21.6191 24.7938 21.64 24.7057 21.7693 24.4346C22.0272 23.8941 22.4431 23.5213 23.0099 23.3225C23.3879 23.1899 23.9473 23.2109 24.3459 23.3726ZM32.2009 23.2975C32.5711 23.4073 32.8255 23.559 33.091 23.8283C33.7408 24.487 33.8767 25.3709 33.456 26.2017C33.3006 26.5084 32.8815 26.9067 32.5514 27.0612C31.2068 27.6903 29.6593 26.7005 29.6627 25.2135C29.6646 24.3654 30.3337 23.5275 31.2004 23.2878C31.4658 23.2145 31.9363 23.219 32.2009 23.2975Z" fill="#2D2D2D"/>
</svg>
