<svg width="77" height="24" viewBox="0 0 77 24" fill="none" xmlns="http://www.w3.org/2000/svg">
<path fill-rule="evenodd" clip-rule="evenodd" d="M38.3145 7.98303L38.3146 8.10871C38.3156 8.97548 38.3165 9.7113 37.874 10.4926C37.4997 11.1582 36.9035 11.5676 36.2444 11.5676C35.3401 11.5676 34.8102 10.8753 34.8102 9.85355C34.8102 7.83659 36.6087 7.47047 38.3145 7.47047V7.98303ZM40.6894 13.751C40.5337 13.8908 40.3085 13.9008 40.133 13.8076C39.4677 13.2524 39.2655 12.9503 38.9566 12.489L38.9565 12.4889C38.9025 12.4082 38.8452 12.3226 38.7816 12.2299C37.4898 13.5546 36.5723 13.9507 34.8996 13.9507C32.9156 13.9507 31.3754 12.7225 31.3754 10.2629C31.3754 8.34249 32.4088 7.03446 33.8861 6.39542C34.958 5.92102 36.3862 5.77418 37.6241 5.64692C37.8626 5.62239 38.0941 5.5986 38.3145 5.57332V5.26712C38.3145 5.20985 38.315 5.15151 38.3154 5.0924V5.09237C38.3194 4.57092 38.3239 3.98948 38.0264 3.55303C37.7415 3.11702 37.1917 2.93729 36.7048 2.93729C35.8072 2.93729 35.0089 3.39992 34.8135 4.35848C34.7737 4.5715 34.6181 4.78118 34.4028 4.79117L32.1206 4.54487C31.9285 4.5016 31.7132 4.34517 31.7695 4.04895C32.2929 1.26647 34.7969 0.427734 37.036 0.427734C38.182 0.427734 39.6792 0.733941 40.5834 1.60596C41.637 2.59425 41.6296 3.88632 41.6216 5.30117V5.30234C41.6209 5.42616 41.6202 5.55092 41.6202 5.6765V9.36428C41.6202 10.3538 41.9845 10.8472 42.369 11.368C42.4152 11.4305 42.4617 11.4934 42.5078 11.5576C42.6569 11.7706 42.69 12.0269 42.4979 12.1867C42.0176 12.5894 41.1631 13.3383 40.6927 13.7576L40.6894 13.751ZM13.893 13.7842H16.248C16.4997 13.7842 16.7018 13.5879 16.7018 13.3449V6.90794L16.7016 6.75476C16.6993 5.36639 16.6963 3.55965 18.3281 3.55965C19.8301 3.55965 19.8044 5.16714 19.7835 6.47602V6.47612V6.47621V6.47631V6.47642C19.7812 6.62505 19.7789 6.76981 19.7789 6.90794L19.7822 13.3449C19.7822 13.5779 19.9677 13.7676 20.2061 13.7842H22.5578C22.8096 13.7842 23.0116 13.5879 23.0116 13.3449V6.90794L23.0113 6.7409C23.0096 6.06153 23.0073 5.14607 23.2302 4.58144C23.472 3.96903 24.0682 3.58627 24.6379 3.58627C25.3202 3.58627 25.8469 3.81593 26.0224 4.63137C26.1131 5.02251 26.1007 5.92687 26.0925 6.53214C26.0904 6.67883 26.0887 6.80795 26.0887 6.90794V13.3449C26.0887 13.5779 26.2775 13.7676 26.5126 13.7842H28.8643C29.1161 13.7842 29.3181 13.5879 29.3181 13.3449L29.3214 5.67979C29.3214 5.49279 29.3246 5.30201 29.3278 5.10937C29.3467 3.96136 29.3667 2.74716 28.7285 1.87219C28.0694 0.953573 26.9896 0.544189 26.0026 0.544189C24.6147 0.544189 23.3196 1.25978 22.7499 2.79413C22.0875 1.25978 21.1667 0.544189 19.6927 0.544189C18.242 0.544189 17.1655 1.25978 16.5925 2.79413H16.5494V1.20653C16.5329 0.986856 16.3507 0.810449 16.1221 0.800471H13.9261C13.6744 0.800471 13.4723 0.993515 13.4723 1.23648V13.3815C13.4889 13.5978 13.6678 13.7676 13.893 13.7842ZM44.4853 2.94393V1.20655C44.4853 0.943613 44.684 0.767212 44.9225 0.767212H52.6632C52.9116 0.767212 53.1104 0.946941 53.1104 1.20655V2.69431C53.1071 2.94393 52.8984 3.27011 52.5274 3.786L48.5163 9.54067C50.0068 9.50406 51.5801 9.72706 52.9315 10.4925C53.2362 10.6656 53.319 10.9186 53.3422 11.1682V13.0221C53.3422 13.275 53.064 13.5712 52.7725 13.4181C50.391 12.1634 47.2278 12.0269 44.5946 13.4315C44.3263 13.5779 44.0448 13.285 44.0448 13.0321V11.2714C44.0448 10.9885 44.0481 10.5059 44.3296 10.0765L48.9767 3.37994H44.9324C44.684 3.37994 44.4853 3.20354 44.4853 2.94393ZM44.4103 16.1579C45.846 15.9868 48.9864 15.6124 49.5463 16.3339C50.1124 17.0623 48.9185 20.0579 48.3847 21.3971V21.3972L48.3837 21.3996C48.2214 21.8056 48.5692 21.9687 48.9336 21.6625C51.3084 19.6689 51.9179 15.4918 51.4343 14.8894C50.9507 14.2903 46.8038 13.7744 44.2765 15.5617C43.8857 15.8346 43.9519 16.2141 44.3859 16.1608L44.4103 16.1579ZM31.359 23.4698C36.8772 23.4698 43.2864 21.7225 47.7083 18.4474C48.4403 17.9015 47.8143 17.0894 47.0657 17.4089C42.1106 19.5224 36.7215 20.5409 31.8227 20.5409C24.559 20.5409 17.5271 18.5406 11.84 15.2156C11.3431 14.9227 10.9721 15.4352 11.3862 15.8113C16.656 20.5942 23.6216 23.4698 31.359 23.4698ZM59.7747 0.544189C63.2692 0.544189 65.1604 3.55965 65.1604 7.39388C65.1604 11.0983 63.0704 14.0372 59.7747 14.0372C56.3433 14.0372 54.4752 11.0217 54.4752 7.26407C54.4752 3.4831 56.3664 0.544189 59.7747 0.544189ZM59.7946 3.02379C58.059 3.02379 57.9497 5.40021 57.9497 6.88132V6.93583C57.9494 8.44183 57.9488 11.5343 59.7747 11.5343C61.5998 11.5343 61.6859 8.97816 61.6859 7.4205C61.6859 6.39538 61.6428 5.17056 61.3348 4.19869C61.0698 3.35329 60.5432 3.02379 59.7946 3.02379ZM67.3461 13.7842H69.6912C69.9429 13.7842 70.1483 13.5879 70.1516 13.3449V6.80476C70.1516 5.986 70.1947 5.24711 70.5259 4.50489C70.7875 3.91911 71.3142 3.53302 71.8872 3.53302C73.3882 3.53302 73.3741 5.18877 73.363 6.488V6.49017C73.3621 6.59788 73.3612 6.70312 73.3612 6.80476V13.4015C73.3843 13.6078 73.5632 13.7676 73.7785 13.7842H76.1401C76.372 13.7842 76.5674 13.6145 76.5939 13.4015V5.75634C76.5939 4.58144 76.5939 2.94724 75.9778 1.97536C75.3154 0.926947 74.2853 0.544189 73.2287 0.544189C71.6024 0.544189 70.6782 1.33633 70.0191 2.99716H69.9761V1.13996C69.9297 0.950246 69.7607 0.810449 69.5554 0.800471H67.3726C67.1341 0.800471 66.9387 0.973543 66.9188 1.19654L66.9221 13.3449C66.9221 13.5779 67.111 13.7676 67.3461 13.7842ZM7.44096 8.10882C7.44091 8.06724 7.44086 8.02535 7.44086 7.98315V7.47059C5.73837 7.47059 3.93982 7.8367 3.93982 9.85367C3.93982 10.8754 4.46647 11.5677 5.37071 11.5677C6.03316 11.5677 6.62605 11.1583 7.00034 10.4927C7.44282 9.71142 7.44197 8.97559 7.44096 8.10882ZM9.25928 13.8077C9.43483 13.9009 9.66007 13.8909 9.81574 13.7511L9.82236 13.7578C10.2927 13.3384 11.1473 12.5895 11.6276 12.1868C11.8197 12.027 11.7866 11.7708 11.6342 11.5577C11.588 11.4935 11.5416 11.4306 11.4954 11.3681C11.1109 10.8473 10.7465 10.3539 10.7465 9.3644V5.67662C10.7465 5.55064 10.7472 5.42549 10.7479 5.30128C10.756 3.88644 10.7633 2.59437 9.70975 1.60608C8.80551 0.734063 7.30837 0.427856 6.16234 0.427856C3.92326 0.427856 1.42251 1.2666 0.895866 4.04907C0.84287 4.34529 1.05485 4.50172 1.24696 4.54499L3.53241 4.79129C3.7444 4.7813 3.90007 4.57162 3.93982 4.3586C4.13524 3.40005 4.93681 2.93741 5.83442 2.93741C6.31801 2.93741 6.86784 3.11714 7.15601 3.55315C7.45027 3.98922 7.44579 4.57002 7.44178 5.09111C7.44132 5.15071 7.44086 5.20951 7.44086 5.26724V5.57344C7.22039 5.59872 6.98893 5.62251 6.7504 5.64704C5.51256 5.7743 4.08435 5.92114 3.01239 6.39554C1.53844 7.03458 0.501709 8.34262 0.501709 10.2631C0.501709 12.7227 2.04521 13.9508 4.02594 13.9508C5.70194 13.9508 6.61611 13.5547 7.90789 12.2301C7.97604 12.3286 8.0369 12.4191 8.09415 12.5042C8.39862 12.9571 8.60133 13.2586 9.25928 13.8077Z" fill="#2D2D2D"/>
</svg>
