<svg width="13" height="16" viewBox="0 0 13 16" fill="none" xmlns="http://www.w3.org/2000/svg">
<path d="M10.756 8.52337C10.7637 7.92371 10.923 7.33575 11.219 6.81419C11.5151 6.29264 11.9382 5.85443 12.4491 5.54035C12.1245 5.07684 11.6964 4.69539 11.1986 4.42629C10.7009 4.1572 10.1472 4.00787 9.58165 3.99018C8.37522 3.86355 7.20563 4.71209 6.59085 4.71209C5.96417 4.71209 5.01762 4.00275 3.99835 4.02372C3.33905 4.04502 2.69652 4.23674 2.13334 4.5802C1.57017 4.92366 1.10557 5.40714 0.784812 5.98354C-0.604656 8.38919 0.431762 11.9247 1.76276 13.8692C2.42868 14.8214 3.20696 15.885 4.22531 15.8473C5.22183 15.806 5.59402 15.2119 6.79691 15.2119C7.98863 15.2119 8.33781 15.8473 9.37683 15.8233C10.4461 15.806 11.1199 14.8669 11.7624 13.9057C12.2409 13.2272 12.6091 12.4774 12.8533 11.6839C12.2321 11.4212 11.7019 10.9813 11.329 10.4193C10.956 9.85728 10.7567 9.19789 10.756 8.52337Z" fill="white"/>
<path d="M8.7935 2.71142C9.37654 2.01151 9.66378 1.11189 9.59422 0.203613C8.70347 0.297169 7.88067 0.722889 7.28976 1.39595C7.00084 1.72475 6.77956 2.10728 6.63857 2.52166C6.49758 2.93603 6.43964 3.37413 6.46807 3.81091C6.9136 3.8155 7.35437 3.71893 7.75717 3.52848C8.15998 3.33803 8.51432 3.05867 8.7935 2.71142Z" fill="white"/>
</svg>
