<svg width="26" height="30" viewBox="0 0 26 30" fill="none" xmlns="http://www.w3.org/2000/svg">
<path fill-rule="evenodd" clip-rule="evenodd" d="M18.5784 0.0152724C17.3132 0.137203 15.8278 0.87003 14.7856 1.88647C13.6707 2.97388 12.9173 4.48548 12.7852 5.9C12.7649 6.11723 12.7743 6.63412 12.8011 6.77853L12.8192 6.87609L12.9448 6.89392C13.128 6.91993 13.579 6.9043 13.8106 6.86391C14.6946 6.70978 15.6153 6.2747 16.4381 5.62221C16.6868 5.42493 17.1469 4.95935 17.3733 4.67562C17.703 4.26265 17.9829 3.82133 18.2088 3.35825C18.5379 2.68379 18.7329 2.04576 18.8395 1.29436C18.8703 1.07719 18.8845 0.400546 18.8619 0.225818C18.8307 -0.0154371 18.8366 -0.00134112 18.7675 0.000913052C18.7341 0.00199623 18.6491 0.00846601 18.5784 0.0152724ZM18.0116 7.25466C17.6709 7.27476 17.2089 7.34924 16.804 7.4493C16.271 7.58102 15.871 7.71696 14.9304 8.08607C14.1673 8.38554 13.9306 8.46896 13.6236 8.54669C13.2341 8.64528 12.8925 8.64282 12.4713 8.5384C12.1731 8.46445 11.9552 8.38698 11.1714 8.07622C10.4172 7.77716 10.1422 7.6776 9.78532 7.57437C8.91626 7.32302 8.22275 7.2671 7.34818 7.37784C6.40518 7.49725 5.49278 7.80977 4.66951 8.29536C3.06894 9.23942 1.87319 10.7641 1.22936 12.6819C0.753833 14.0984 0.587346 15.7042 0.733047 17.4688C0.866468 19.0846 1.26146 20.7996 1.87417 22.4236C2.26747 23.466 2.79935 24.5641 3.3276 25.4243C3.81057 26.2107 4.78399 27.5311 5.38876 28.2201C6.51366 29.5016 7.55698 30.0474 8.72271 29.9642C9.33651 29.9204 9.72569 29.811 10.6705 29.4168C11.28 29.1624 11.5346 29.0673 11.8499 28.9762C12.8031 28.7005 13.8801 28.6763 14.8133 28.9095C15.2038 29.0071 15.4286 29.0884 16.0941 29.3727C16.9195 29.7253 17.2357 29.8249 17.7554 29.8963C17.9862 29.928 18.481 29.9403 18.6776 29.9192C19.586 29.8219 20.4149 29.3709 21.2395 28.5253C21.7428 28.0093 22.2519 27.3606 22.9839 26.3025C23.7909 25.1361 24.5095 23.7122 24.9564 22.3943C25.0921 21.9938 25.093 21.99 25.0495 21.9765C24.9021 21.931 24.3383 21.6215 24.0423 21.4238C22.3506 20.2937 21.3293 18.6646 21.1086 16.7442C20.925 15.1469 21.2773 13.6277 22.132 12.331C22.6275 11.5794 23.3434 10.8627 24.1118 10.3491C24.2104 10.2832 24.2911 10.2222 24.2911 10.2135C24.2911 10.1888 24.0901 9.91983 23.9157 9.71114C22.6822 8.23559 20.9389 7.3877 18.8752 7.25962C18.653 7.24584 18.2049 7.24326 18.0116 7.25466Z" fill="#2D2D2D"/>
</svg>
