<svg width="67" height="23" viewBox="0 0 67 23" fill="none" xmlns="http://www.w3.org/2000/svg">
<path fill-rule="evenodd" clip-rule="evenodd" d="M8.67154 8.75862V11.0948L14.2548 11.0923C14.0835 12.3807 13.649 13.3241 12.9887 13.9844C12.1744 14.7987 10.9034 15.6949 8.67154 15.6949C5.23073 15.6949 2.53965 12.9219 2.53965 9.48105C2.53965 6.04023 5.23073 3.26723 8.67154 3.26723C10.5285 3.26723 11.884 3.9971 12.8844 4.9355L14.5328 3.28709C13.1376 1.95396 11.2807 0.931152 8.67402 0.931152C3.96215 0.931152 0 4.76917 0 9.48105C0 14.193 3.96215 18.031 8.67402 18.031C11.2162 18.031 13.1352 17.1969 14.6371 15.6328C16.1812 14.0887 16.6604 11.9214 16.6604 10.1687C16.6604 9.64738 16.6207 9.16576 16.5437 8.75862H8.67154ZM55.7679 17.6957V1.55908H53.4095V17.6957H55.7679ZM23.1225 18.0335C26.1661 18.0335 28.6462 15.6974 28.6462 12.5272C28.6462 9.33461 26.1661 7.02087 23.1225 7.02087C20.0789 7.02087 17.5988 9.33461 17.5988 12.5272C17.5988 15.6974 20.0789 18.0335 23.1225 18.0335ZM23.1225 9.19062C24.7908 9.19062 26.2282 10.5461 26.2282 12.5272C26.2282 14.4859 24.7908 15.8638 23.1225 15.8638C21.4542 15.8638 20.0168 14.4884 20.0168 12.5272C20.0168 10.5461 21.4542 9.19062 23.1225 9.19062ZM35.0388 18.0335C38.0824 18.0335 40.5624 15.6974 40.5624 12.5272C40.5624 9.33461 38.0824 7.02087 35.0388 7.02087C31.9952 7.02087 29.5151 9.33709 29.5151 12.5272C29.5151 15.6974 31.9952 18.0335 35.0388 18.0335ZM35.0388 9.19062C36.707 9.19062 38.1444 10.5461 38.1444 12.5272C38.1444 14.4859 36.707 15.8638 35.0388 15.8638C33.3705 15.8638 31.9331 14.4884 31.9331 12.5272C31.9331 10.5461 33.3705 9.19062 35.0388 9.19062ZM51.982 7.35602V17.2391C51.982 21.3055 49.5839 22.9663 46.7488 22.9663C44.0801 22.9663 42.4738 21.1814 41.8681 19.7216L43.9733 18.8453C44.3482 19.7415 45.2667 20.7991 46.7463 20.7991C48.5611 20.7991 49.6856 19.6794 49.6856 17.5718V16.7798H49.6012C49.06 17.4476 48.0174 18.031 46.7016 18.031C43.9485 18.031 41.4262 15.6329 41.4262 12.5471C41.4262 9.43887 43.9485 7.02087 46.7016 7.02087C48.0149 7.02087 49.0576 7.60427 49.6012 8.25221H49.6856V7.35602H51.982ZM49.8569 12.5471C49.8569 10.6082 48.5635 9.19062 46.9176 9.19062C45.2493 9.19062 43.8517 10.6082 43.8517 12.5471C43.8517 14.4661 45.2493 15.8638 46.9176 15.8638C48.5635 15.8638 49.8569 14.4661 49.8569 12.5471ZM64.9583 14.3396L66.8351 15.5908C66.2293 16.487 64.7696 18.0312 62.2473 18.0312C59.1193 18.0312 56.7832 15.6132 56.7832 12.5249C56.7832 9.25036 59.1392 7.01855 61.9767 7.01855C64.8341 7.01855 66.2318 9.29257 66.6886 10.5214L66.9393 11.1471L59.5786 14.1956C60.1421 15.3004 61.0185 15.8639 62.2473 15.8639C63.4787 15.8639 64.3327 15.2582 64.9583 14.3396ZM59.1814 12.3586L64.1018 10.3154C63.8312 9.62771 63.0169 9.14858 62.0586 9.14858C60.8298 9.14858 59.1193 10.2335 59.1814 12.3586Z" fill="#2D2D2D"/>
</svg>
