<svg width="16" height="18" viewBox="0 0 16 18" fill="none" xmlns="http://www.w3.org/2000/svg">
<path d="M0.30855 0.444754C0.0916323 0.704113 -0.0178961 1.0366 0.00240421 1.37411V16.0041C-0.0179551 16.3416 0.0915803 16.6741 0.30855 16.9334L0.357502 16.9811L8.55292 8.78577V8.59241L0.357502 0.396729L0.30855 0.444754Z" fill="url(#paint0_linear_224_66)"/>
<path d="M11.2845 11.5187L8.55286 8.78576V8.5924L11.2851 5.86011L11.3467 5.89523L14.5834 7.73429C15.5079 8.25953 15.5079 9.11896 14.5834 9.64453L11.3467 11.4836L11.2845 11.5187Z" fill="url(#paint1_linear_224_66)"/>
<path d="M11.3468 11.4834L8.55296 8.68921L0.308594 16.9335C0.49697 17.0997 0.737532 17.1947 0.988598 17.2021C1.23966 17.2095 1.48542 17.1289 1.68327 16.9741L11.3468 11.4834Z" fill="url(#paint2_linear_224_66)"/>
<path d="M11.3468 5.89498L1.68327 0.404206C1.48542 0.249475 1.23966 0.168833 0.988598 0.176251C0.737532 0.183669 0.49697 0.27868 0.308594 0.444822L8.55296 8.68919L11.3468 5.89498Z" fill="url(#paint3_linear_224_66)"/>
<path opacity="0.2" d="M11.2852 11.4219L1.68327 16.8775C1.49303 17.0223 1.26085 17.1014 1.02176 17.1026C0.782668 17.1039 0.549651 17.0274 0.357876 16.8846L0.308594 16.9339L0.357546 16.9816L0.357876 16.9812C0.549619 17.1241 0.782649 17.2007 1.02176 17.1994C1.26087 17.1981 1.49307 17.1191 1.68327 16.9742L11.3468 11.4834L11.2852 11.4219Z" fill="#3B3B3B"/>
<path opacity="0.12" d="M0.308535 16.8371C0.091638 16.5777 -0.0178876 16.2452 0.00238901 15.9077V16.0044C-0.0178998 16.3419 0.0916272 16.6743 0.308535 16.9337L0.357817 16.8844L0.308535 16.8371Z" fill="#3B3B3B"/>
<path opacity="0.12" d="M14.5834 9.54763L11.2852 11.4218L11.3467 11.4833L14.5834 9.64427C14.7738 9.56165 14.9385 9.42949 15.0605 9.26156C15.1824 9.09363 15.2571 8.89607 15.2768 8.68945C15.2359 8.87656 15.1519 9.05154 15.0315 9.20051C14.9112 9.34949 14.7577 9.46833 14.5834 9.54763Z" fill="#3B3B3B"/>
<path opacity="0.25" d="M1.68327 0.501206L14.5835 7.83071C14.7579 7.90999 14.9114 8.02888 15.0318 8.17791C15.1521 8.32695 15.2361 8.50203 15.2769 8.68921C15.2574 8.48252 15.1827 8.28485 15.0607 8.11685C14.9388 7.94884 14.7739 7.81665 14.5835 7.73406L1.68327 0.40456C0.758743 -0.120743 0.00244141 0.315587 0.00244141 1.37453V1.47117C0.00244141 0.4123 0.758743 -0.0240304 1.68327 0.501206Z" fill="white"/>
<defs>
<linearGradient id="paint0_linear_224_66" x1="7.82614" y1="1.21985" x2="-3.27554" y2="12.3215" gradientUnits="userSpaceOnUse">
<stop stop-color="#00A0FF"/>
<stop offset="0.00657" stop-color="#00A1FF"/>
<stop offset="0.2601" stop-color="#00BEFF"/>
<stop offset="0.5122" stop-color="#00D2FF"/>
<stop offset="0.7604" stop-color="#00DFFF"/>
<stop offset="1" stop-color="#00E3FF"/>
</linearGradient>
<linearGradient id="paint1_linear_224_66" x1="15.7871" y1="8.68941" x2="-0.219339" y2="8.68941" gradientUnits="userSpaceOnUse">
<stop stop-color="#FFE000"/>
<stop offset="0.4087" stop-color="#FFBD00"/>
<stop offset="0.7754" stop-color="#FFA500"/>
<stop offset="1" stop-color="#FF9C00"/>
</linearGradient>
<linearGradient id="paint2_linear_224_66" x1="9.82871" y1="10.2074" x2="-5.22606" y2="25.2622" gradientUnits="userSpaceOnUse">
<stop stop-color="#FF3A44"/>
<stop offset="1" stop-color="#C31162"/>
</linearGradient>
<linearGradient id="paint3_linear_224_66" x1="-1.76726" y1="-4.42508" x2="4.95532" y2="2.29751" gradientUnits="userSpaceOnUse">
<stop stop-color="#32A071"/>
<stop offset="0.0685" stop-color="#2DA771"/>
<stop offset="0.4762" stop-color="#15CF74"/>
<stop offset="0.8009" stop-color="#06E775"/>
<stop offset="1" stop-color="#00F076"/>
</linearGradient>
</defs>
</svg>
