<svg width="49" height="18" viewBox="0 0 49 18" fill="none" xmlns="http://www.w3.org/2000/svg">
<path fill-rule="evenodd" clip-rule="evenodd" d="M47.556 0.57388C47.1475 0.683697 44.9004 1.28495 42.5625 1.91001C40.2246 2.53512 37.6803 3.21569 36.9086 3.42245C36.1368 3.62921 34.0197 4.19559 32.2039 4.68112C22.3525 7.31522 13.9217 9.57096 12.8486 9.8598C11.39 10.2524 10.7943 10.3394 9.83592 10.2999C8.35121 10.2387 7.14103 9.77561 6.27194 8.93599C5.35721 8.05233 4.93894 6.89766 4.99961 5.4236C5.0462 4.29158 5.35457 3.12775 5.96122 1.79438C6.10517 1.47797 6.21874 1.2152 6.21359 1.21042C6.20843 1.20559 5.97703 1.47545 5.69937 1.81006C2.4755 5.69494 0.565759 9.11188 0.139241 11.7584C0.0463441 12.3348 0.0552997 13.2754 0.158473 13.7817C0.372661 14.8326 0.928062 15.6288 1.95402 16.3556C4.0377 17.8316 6.59038 17.9909 10.0262 16.8593C11.3552 16.4216 12.9799 15.7589 19.0183 13.1913C19.8468 12.839 21.3418 12.2039 22.3405 11.7798C23.3392 11.3556 24.2771 10.9565 24.4246 10.8926C24.5721 10.8288 25.835 10.2895 27.2309 9.69411C30.8332 8.15777 37.6382 5.24837 45.3275 1.95714C47.0072 1.23819 48.4165 0.615931 48.4594 0.574373C48.5566 0.480155 48.5196 0.367037 48.393 0.371206C48.3413 0.372898 47.9646 0.464103 47.556 0.57388Z" fill="#2D2D2D"/>
</svg>
