<svg width="73" height="12" viewBox="0 0 73 12" fill="none" xmlns="http://www.w3.org/2000/svg">
<path fill-rule="evenodd" clip-rule="evenodd" d="M3.70707 0.427531C2.43462 0.527049 1.52019 0.956808 1.03722 1.68227C0.742053 2.12565 0.614843 2.57659 0.595812 3.24705C0.58502 3.62715 0.603919 3.85841 0.66859 4.13776C0.828838 4.82993 1.29225 5.39436 2.18775 5.98814C2.50718 6.19992 2.73178 6.33216 3.47399 6.7454C4.40362 7.26297 4.68441 7.44999 4.98731 7.75327C5.20922 7.97546 5.30706 8.1321 5.35744 8.34577C5.41729 8.59973 5.37866 8.95357 5.26492 9.19307C5.10677 9.52609 4.81067 9.68261 4.33994 9.68202C3.79612 9.68133 3.4372 9.44065 3.32232 8.99961C3.29925 8.91107 3.29318 8.7675 3.29318 8.31126V7.73479H1.90385H0.514526V8.21679C0.514526 8.73611 0.534339 9.01314 0.591339 9.29082C0.819665 10.4029 1.60642 11.128 2.89722 11.416C3.82307 11.6226 5.0176 11.5998 5.88413 11.3591C6.42794 11.208 6.86324 10.9729 7.20102 10.6478C7.64115 10.2242 7.85482 9.76486 7.94968 9.03847C7.99589 8.68476 7.99564 7.93736 7.94924 7.63963C7.82346 6.8326 7.35786 6.22706 6.36407 5.57798C6.03507 5.36309 5.74203 5.1951 4.99654 4.79394C4.07804 4.29972 3.74418 4.08224 3.50171 3.82029C3.30812 3.61111 3.23609 3.41934 3.23609 3.1131C3.23609 2.52519 3.59019 2.17683 4.18692 2.17776C4.59348 2.17839 4.88994 2.32884 5.04023 2.61081C5.14263 2.80292 5.15831 2.90132 5.15831 3.35193V3.75712H6.45248H7.74664L7.74647 3.36221C7.74617 2.59287 7.68064 2.21282 7.47864 1.80845C7.09971 1.05001 6.30515 0.599617 5.09048 0.454747C4.79035 0.418948 4.01242 0.403646 3.70707 0.427531ZM37.3793 0.484227C35.9851 0.592766 35.0368 1.08455 34.5947 1.92827C34.5019 2.10531 34.4078 2.35714 34.3643 2.54483C34.2424 3.0706 34.2455 3.7544 34.3719 4.23629C34.5417 4.88372 35.0384 5.46179 35.9138 6.03073C36.1755 6.2008 36.4505 6.36183 37.0192 6.67796C37.2958 6.83169 37.6514 7.03491 37.8096 7.12955C38.4579 7.51752 38.8267 7.86236 38.961 8.20609C39.0204 8.35803 39.0333 8.70102 38.9876 8.90963C38.9027 9.29691 38.6981 9.51589 38.3309 9.61243C38.1655 9.6559 37.8126 9.65644 37.651 9.61342C37.3788 9.54103 37.1517 9.37041 37.0498 9.16186C36.9578 8.97344 36.9423 8.84275 36.9419 8.25341L36.9416 7.71576H35.5692H34.1968L34.2066 8.33905C34.2147 8.8554 34.223 8.99826 34.2552 9.17169C34.4615 10.2845 35.1883 11.012 36.406 11.3245C37.369 11.5716 38.6419 11.5589 39.5596 11.2931C40.1071 11.1345 40.4996 10.9143 40.8457 10.5713C41.3907 10.0314 41.5938 9.4079 41.5929 8.2772C41.5925 7.79875 41.5718 7.60333 41.489 7.29905C41.3276 6.70568 40.798 6.10434 39.9581 5.56077C39.6781 5.37957 39.3457 5.19007 38.6684 4.82552C37.7182 4.31415 37.3934 4.10282 37.1509 3.83812C36.9164 3.58224 36.8368 3.27151 36.9133 2.91053C37.0085 2.46088 37.3369 2.21632 37.8456 2.21615C38.2271 2.21603 38.5297 2.37392 38.6805 2.65169C38.7766 2.82894 38.7913 2.91525 38.8015 3.36221L38.8109 3.77615H40.0839H41.357V3.33916C41.357 3.09883 41.3475 2.81405 41.3359 2.70635C41.1991 1.43592 40.3271 0.701762 38.7306 0.512757C38.4218 0.476215 37.6827 0.460609 37.3793 0.484227ZM68.6392 0.476557C68.3976 0.500709 67.9995 0.566807 67.7968 0.616404C67.1905 0.764758 66.7372 1.00534 66.3629 1.37738C65.9298 1.80772 65.7168 2.26828 65.6011 3.02439C65.5684 3.23862 65.5536 8.21574 65.5845 8.61025C65.6128 8.9699 65.6468 9.163 65.7269 9.41911C66.1279 10.7016 67.4684 11.4006 69.4195 11.3447C71.3976 11.2881 72.5974 10.4749 72.8362 9.02896C72.8999 8.64308 72.9118 8.28844 72.9118 6.77488V5.29871H71.0753H69.2387V6.05998V6.82126H69.7716H70.3045L70.3041 7.72051C70.3038 8.70252 70.2962 8.79146 70.1966 8.97443C70.0251 9.28948 69.7145 9.46214 69.2863 9.48047C68.7145 9.50494 68.3072 9.24739 68.178 8.77954C68.1466 8.66585 68.1444 8.48008 68.1444 5.95531C68.1444 3.40918 68.1464 3.24423 68.179 3.1052C68.2989 2.59391 68.6585 2.32394 69.2197 2.32394C69.5619 2.32394 69.7961 2.40906 69.9928 2.60491C70.2231 2.83442 70.266 2.98422 70.28 3.60963L70.2902 4.06163H71.5915H72.8928V3.73133C72.8928 2.58744 72.6806 1.92528 72.1416 1.38752C71.6735 0.920457 71.0889 0.661243 70.1808 0.518066C69.9765 0.485864 69.8272 0.478194 69.3243 0.474007C68.9894 0.471229 68.6811 0.47237 68.6392 0.476557ZM44.0104 0.756612C44.005 0.770829 44.0037 2.58866 44.0075 4.79626C44.0138 8.37277 44.0179 8.83215 44.0453 9.01251C44.1515 9.7114 44.3578 10.1515 44.7712 10.5613C45.3236 11.1089 46.0862 11.3807 47.2614 11.4489C48.0539 11.4948 48.863 11.4019 49.4586 11.1966C50.5572 10.8177 51.1563 10.0279 51.2528 8.83112C51.2656 8.67188 51.2726 7.2065 51.2726 4.65838V0.731052H49.9692H48.6659L48.6608 4.77057L48.6557 8.81009L48.6132 8.93517C48.5052 9.2526 48.2935 9.45649 47.9697 9.55488C47.7979 9.60711 47.4407 9.60176 47.2766 9.54453C46.9844 9.44261 46.8021 9.26632 46.6793 8.96701L46.6383 8.86718L46.6288 4.80388L46.6193 0.740568L45.3198 0.735676C44.2397 0.731603 44.0187 0.735144 44.0104 0.756612ZM11.5832 0.802421C11.5502 0.960329 9.6879 11.094 9.6879 11.1156C9.6879 11.1372 9.91908 11.1415 11.0764 11.1415H12.4648L12.4756 11.0796C12.4977 10.9523 13.8749 1.74404 13.8749 1.72332C13.8749 1.7114 13.892 1.70168 13.913 1.70168C13.9339 1.70168 13.951 1.71241 13.951 1.72553C13.951 1.74878 15.2911 10.9569 15.3124 11.0796L15.3231 11.1415H16.7119H18.1007L18.0908 11.0987C18.0782 11.0444 16.1968 0.775092 16.1968 0.760723C16.1968 0.75488 15.1612 0.750084 13.8954 0.750084H11.5941L11.5832 0.802421ZM20.3957 0.887988C20.3865 1.00987 20.1723 10.822 20.1739 11.0511L20.1745 11.1415H21.4686H22.7628L22.763 10.3469C22.7633 8.37416 22.8216 1.80656 22.8389 1.78928C22.849 1.77914 22.8625 1.776 22.8688 1.78232C22.8751 1.78863 23.265 3.87777 23.7352 6.42482C24.2053 8.9719 24.5945 11.0751 24.5998 11.0987L24.6096 11.1415H25.9198H27.23L27.2498 11.0416C27.2606 10.9866 27.6485 8.88622 28.1117 6.37401C28.5749 3.8618 28.9612 1.79823 28.9701 1.78827C28.9803 1.77685 28.9923 1.77685 29.0028 1.78827C29.0151 1.8018 29.0851 9.91066 29.0819 10.9655L29.0814 11.1415H30.3764H31.6714L31.66 10.8037C31.6537 10.6179 31.6065 8.46181 31.5552 6.0124C31.5039 3.563 31.4563 1.37696 31.4495 1.15451L31.4371 0.750084L29.3315 0.750102L27.2258 0.750141L26.5885 4.72057C25.9876 8.46422 25.9377 8.75048 25.895 8.70302C25.8915 8.6991 25.6023 6.91023 25.2523 4.72775L24.616 0.7596L22.5111 0.754765L20.4061 0.749913L20.3957 0.887988ZM54.1654 5.89821V11.0463H55.431H56.6967L56.6965 10.8132C56.6964 10.685 56.6665 8.82436 56.63 6.67852C56.5936 4.53267 56.5636 2.73203 56.5636 2.67706C56.5634 2.52009 56.6086 2.54527 56.666 2.73416C56.6922 2.82052 56.9543 3.68766 57.2484 4.66114C57.5424 5.63462 58.0968 7.46958 58.4802 8.73881L59.1773 11.0465L61.0154 11.0417L62.8535 11.0368L62.8583 5.89345L62.8631 0.750084H61.5779H60.2928L60.3037 1.13548C60.3097 1.34746 60.3395 3.03677 60.3699 4.88952C60.4003 6.74227 60.4294 8.40591 60.4346 8.58646C60.4432 8.88913 60.4413 8.91476 60.4108 8.91476C60.3832 8.91476 60.1834 8.24638 59.2004 4.86573C58.5528 2.63875 58.0191 0.801698 58.0142 0.783389C58.0059 0.751949 57.898 0.750084 56.0854 0.750084H54.1654V5.89821Z" fill="#2D2D2D"/>
</svg>
