<svg width="71" height="12" viewBox="0 0 71 12" fill="none" xmlns="http://www.w3.org/2000/svg">
<path d="M5.33182 1.35011C5.54667 0.914784 6.16742 0.914783 6.38227 1.3501L7.44211 3.49758C7.52742 3.67045 7.69234 3.79027 7.88311 3.81799L10.253 4.16235C10.7334 4.23216 10.9252 4.82253 10.5776 5.16138L8.86273 6.83296C8.72469 6.96752 8.6617 7.16139 8.69429 7.35139L9.09911 9.71169C9.18117 10.1902 8.67897 10.555 8.24928 10.3291L6.1296 9.21474C5.95897 9.12504 5.75512 9.12504 5.58449 9.21474L3.46481 10.3291C3.03512 10.555 2.53291 10.1902 2.61498 9.71169L3.0198 7.35139C3.05239 7.16139 2.9894 6.96752 2.85135 6.83296L1.13649 5.16138C0.788867 4.82253 0.98069 4.23216 1.4611 4.16235L3.83098 3.81799C4.02175 3.79027 4.18666 3.67045 4.27198 3.49758L5.33182 1.35011Z" fill="#2D2D2D"/>
<path d="M20.0459 1.35011C20.2608 0.914784 20.8815 0.914783 21.0964 1.3501L22.1562 3.49758C22.2415 3.67045 22.4064 3.79027 22.5972 3.81799L24.9671 4.16235C25.4475 4.23216 25.6393 4.82253 25.2917 5.16138L23.5768 6.83296C23.4388 6.96752 23.3758 7.16139 23.4084 7.35139L23.8132 9.71169C23.8953 10.1902 23.3931 10.555 22.9634 10.3291L20.8437 9.21474C20.6731 9.12504 20.4692 9.12504 20.2986 9.21474L18.1789 10.3291C17.7492 10.555 17.247 10.1902 17.3291 9.71169L17.7339 7.35139C17.7665 7.16139 17.7035 6.96752 17.5655 6.83296L15.8506 5.16138C15.503 4.82253 15.6948 4.23216 16.1752 4.16235L18.5451 3.81799C18.7359 3.79027 18.9008 3.67045 18.9861 3.49758L20.0459 1.35011Z" fill="#2D2D2D"/>
<path d="M34.76 1.35011C34.9748 0.914784 35.5956 0.914783 35.8104 1.3501L36.8703 3.49758C36.9556 3.67045 37.1205 3.79027 37.3113 3.81799L39.6812 4.16235C40.1616 4.23216 40.3534 4.82253 40.0058 5.16138L38.2909 6.83296C38.1529 6.96752 38.0899 7.16139 38.1224 7.35139L38.5273 9.71169C38.6093 10.1902 38.1071 10.555 37.6774 10.3291L35.5578 9.21474C35.3871 9.12504 35.1833 9.12504 35.0127 9.21474L32.893 10.3291C32.4633 10.555 31.9611 10.1902 32.0431 9.71169L32.448 7.35139C32.4806 7.16139 32.4176 6.96752 32.2795 6.83296L30.5647 5.16138C30.217 4.82253 30.4089 4.23216 30.8893 4.16235L33.2591 3.81799C33.4499 3.79027 33.6148 3.67045 33.7001 3.49758L34.76 1.35011Z" fill="#2D2D2D"/>
<path d="M49.4741 1.35011C49.6889 0.914784 50.3097 0.914783 50.5245 1.3501L51.5844 3.49758C51.6697 3.67045 51.8346 3.79027 52.0254 3.81799L54.3953 4.16235C54.8757 4.23216 55.0675 4.82253 54.7199 5.16138L53.005 6.83296C52.867 6.96752 52.804 7.16139 52.8366 7.35139L53.2414 9.71169C53.3234 10.1902 52.8212 10.555 52.3916 10.3291L50.2719 9.21474C50.1012 9.12504 49.8974 9.12504 49.7268 9.21474L47.6071 10.3291C47.1774 10.555 46.6752 10.1902 46.7572 9.71169L47.1621 7.35139C47.1947 7.16139 47.1317 6.96752 46.9936 6.83296L45.2788 5.16138C44.9311 4.82253 45.123 4.23216 45.6034 4.16235L47.9733 3.81799C48.164 3.79027 48.3289 3.67045 48.4143 3.49758L49.4741 1.35011Z" fill="#2D2D2D"/>
<path d="M64.1881 1.35011C64.403 0.914784 65.0237 0.914783 65.2386 1.3501L66.2984 3.49758C66.3837 3.67045 66.5487 3.79027 66.7394 3.81799L69.1093 4.16235C69.5897 4.23216 69.7815 4.82253 69.4339 5.16138L67.7191 6.83296C67.581 6.96752 67.518 7.16139 67.5506 7.35139L67.9554 9.71169C68.0375 10.1902 67.5353 10.555 67.1056 10.3291L64.9859 9.21474C64.8153 9.12504 64.6114 9.12504 64.4408 9.21474L62.3211 10.3291C61.8914 10.555 61.3892 10.1902 61.4713 9.71169L61.8761 7.35139C61.9087 7.16139 61.8457 6.96752 61.7077 6.83296L59.9928 5.16138C59.6452 4.82253 59.837 4.23216 60.3174 4.16235L62.6873 3.81799C62.8781 3.79027 63.043 3.67045 63.1283 3.49758L64.1881 1.35011Z" fill="#2D2D2D"/>
</svg>
